<svg width="24" height="24" viewBox="0 0 24 24" fill="none" xmlns="http://www.w3.org/2000/svg">
<path d="M4.96875 14.8125V16.2188C4.96875 18.5451 6.86114 20.4375 9.1875 20.4375H10.5938V24H13.4062V20.4375H14.4664C16.9837 20.4375 19.0312 18.3899 19.0312 15.8727C19.0312 13.7736 17.6092 11.9526 15.5733 11.4438L13.4062 10.902V6.375H14.8125C15.5877 6.375 16.2188 7.00603 16.2188 7.78125V9.1875H19.0312V7.78125C19.0312 5.45489 17.1389 3.5625 14.8125 3.5625H13.4062V0H10.5938V3.5625H9.53358C7.01634 3.5625 4.96875 5.61009 4.96875 8.12733C4.96875 10.2264 6.3908 12.0474 8.42672 12.5562L10.5938 13.098V17.625H9.1875C8.41228 17.625 7.78125 16.994 7.78125 16.2188V14.8125H4.96875ZM13.4062 13.8013L14.8908 14.1725C15.6729 14.3675 16.2188 15.0665 16.2188 15.8727C16.2188 16.8388 15.4326 17.625 14.4664 17.625H13.4062V13.8013ZM9.10922 9.82744C8.32711 9.63244 7.78125 8.93344 7.78125 8.12728C7.78125 7.16119 8.56744 6.37495 9.53358 6.37495H10.5938V10.1986L9.10922 9.82744Z" fill="#292D32"/>
</svg>
